<?xml version="1.0" standalone="no"?>
<!DOCTYPE svg PUBLIC "-//W3C//DTD SVG 20010904//EN"
 "http://www.w3.org/TR/2001/REC-SVG-20010904/DTD/svg10.dtd">
<svg version="1.0" xmlns="http://www.w3.org/2000/svg"
 width="1500.000000pt" height="1500.000000pt" viewBox="0 0 1500.000000 1500.000000"
 preserveAspectRatio="xMidYMid meet">
<metadata>
Created by potrace 1.11, written by Peter Selinger 2001-2013
</metadata>
<g transform="translate(0.000000,1500.000000) scale(0.100000,-0.100000)"
fill="#000000" stroke="none">
<path d="M7168 14995 c-1 -2 -61 -6 -133 -9 -71 -4 -143 -9 -160 -11 -16 -2
-61 -7 -100 -10 -38 -3 -86 -8 -105 -10 -19 -3 -60 -7 -90 -11 -72 -7 -110
-13 -140 -19 -14 -3 -46 -7 -71 -10 -25 -3 -56 -8 -70 -10 -13 -3 -35 -7 -49
-10 -114 -19 -241 -43 -282 -51 -15 -3 -30 -5 -33 -5 -2 0 -19 -5 -37 -10 -18
-5 -46 -12 -63 -15 -90 -15 -601 -156 -670 -184 -11 -4 -56 -20 -100 -35 -281
-94 -616 -235 -915 -385 -118 -59 -232 -117 -252 -129 -21 -11 -53 -29 -70
-40 -18 -10 -62 -35 -97 -55 -151 -86 -404 -250 -607 -394 -77 -54 -327 -245
-350 -267 -6 -5 -33 -28 -60 -50 -257 -211 -669 -615 -882 -865 -73 -85 -138
-162 -146 -170 -7 -8 -41 -51 -75 -95 -34 -44 -68 -87 -74 -95 -95 -120 -331
-464 -428 -622 -217 -354 -436 -789 -568 -1128 -19 -47 -43 -107 -53 -134 -91
-227 -266 -801 -295 -966 -2 -14 -8 -41 -13 -60 -10 -40 -46 -218 -55 -270 -3
-19 -8 -46 -10 -60 -10 -50 -14 -69 -21 -117 -3 -26 -8 -57 -10 -67 -12 -67
-38 -287 -59 -501 -26 -271 -27 -1014 0 -1250 2 -22 7 -67 10 -100 14 -138 17
-163 26 -235 11 -83 14 -101 25 -175 5 -27 9 -57 9 -65 1 -8 5 -33 10 -54 4
-22 9 -47 10 -55 9 -89 69 -357 160 -711 56 -219 200 -628 333 -945 112 -265
330 -688 475 -919 152 -244 265 -412 395 -586 35 -47 73 -98 85 -115 146 -195
381 -460 631 -710 211 -211 296 -290 467 -435 83 -71 93 -79 159 -130 25 -19
47 -38 50 -41 17 -20 341 -254 480 -346 330 -219 637 -391 1040 -580 186 -88
499 -210 745 -292 130 -43 410 -127 455 -136 8 -2 51 -12 95 -23 104 -27 290
-68 339 -76 21 -4 41 -8 45 -11 4 -2 25 -6 47 -9 21 -3 77 -12 124 -20 47 -8
103 -17 125 -20 22 -4 51 -8 65 -11 14 -2 48 -7 75 -10 28 -3 66 -7 85 -10 50
-6 116 -13 185 -20 33 -3 80 -8 105 -10 257 -27 989 -26 1245 0 22 3 67 7 100
10 33 3 80 8 105 10 99 12 146 17 160 20 8 2 38 6 65 9 28 4 61 9 75 11 14 2
54 9 90 15 85 13 179 30 245 43 11 3 38 8 60 12 22 5 42 9 45 10 3 1 23 5 45
9 84 17 435 108 545 142 130 40 375 120 405 133 11 5 65 26 120 47 839 317
1688 839 2355 1449 71 64 463 457 521 521 36 40 199 230 257 299 63 76 269
351 349 465 86 125 273 415 273 425 0 4 13 25 28 48 16 23 36 56 44 72 9 17
46 86 84 155 154 279 324 651 438 963 99 268 218 658 261 857 41 186 76 358
84 405 16 92 20 118 25 140 2 11 7 43 10 70 4 28 9 57 11 65 2 8 6 42 10 75 3
33 8 74 11 90 4 31 10 83 20 190 3 33 7 78 9 100 13 133 20 350 20 635 -1 291
-3 375 -20 595 -12 154 -45 435 -61 520 -3 17 -7 44 -9 60 -2 17 -8 55 -14 85
-5 30 -12 71 -16 90 -28 165 -105 492 -165 701 -81 285 -237 717 -340 944
-143 314 -236 497 -373 733 -40 67 -76 131 -82 140 -112 193 -407 613 -573
817 -306 374 -669 743 -1042 1059 -162 138 -449 351 -658 489 -718 475 -1468
806 -2302 1018 -173 44 -462 106 -575 123 -38 6 -55 9 -130 21 -16 2 -66 9
-110 15 -44 6 -93 12 -110 15 -16 2 -61 7 -100 11 -38 3 -77 8 -86 9 -9 2 -63
6 -120 10 -57 4 -117 9 -134 11 -35 6 -802 14 -807 9z"/>
</g>
</svg>
